<?xml version="1.0" encoding="UTF-8"?>
<svg id="Layer_1" data-name="Layer 1" xmlns="http://www.w3.org/2000/svg" viewBox="0 0 702.18 164.01">
  <defs>
    <style>
      .cls-1 {
        fill: #0a2663;
      }
    </style>
  </defs>
  <path class="cls-1" d="M0,160.42V3.58H75.51c14.64,0,27.3,2.39,37.98,7.17,10.68,4.78,18.93,11.62,24.76,20.5,5.83,8.89,8.74,19.38,8.74,31.48s-2.91,22.52-8.74,31.26c-5.83,8.74-14.08,15.42-24.76,20.05-10.68,4.63-23.34,6.95-37.98,6.95H29.35l23.53-21.73v61.17H0Zm52.88-55.34l-23.53-23.97h42.79c7.32,0,12.73-1.64,16.24-4.93,3.51-3.28,5.27-7.76,5.27-13.44s-1.76-10.16-5.27-13.44c-3.51-3.28-8.93-4.93-16.24-4.93H29.35l23.53-23.97V105.08Zm41,55.34l-38.54-57.13h56.01l38.99,57.13h-56.46Z"/>
  <path class="cls-1" d="M218.9,120.54h78.42v39.88H166.92V3.58h127.49V43.47h-75.51V120.54Zm-3.58-58.7h69.9v38.09h-69.9V61.84Z"/>
  <path class="cls-1" d="M398.82,164.01c-12.55,0-24.16-1.98-34.84-5.94-10.68-3.96-19.94-9.6-27.78-16.92-7.84-7.32-13.93-15.98-18.26-25.99-4.33-10.01-6.5-21.06-6.5-33.16s2.16-23.15,6.5-33.16c4.33-10.01,10.42-18.67,18.26-25.99,7.84-7.32,17.1-12.96,27.78-16.92,10.68-3.96,22.29-5.94,34.84-5.94,15.38,0,29.02,2.69,40.89,8.07s21.69,13.15,29.46,23.3l-33.38,29.8c-4.63-5.83-9.75-10.34-15.35-13.56-5.6-3.21-11.91-4.82-18.93-4.82-5.53,0-10.53,.9-15.01,2.69-4.48,1.79-8.33,4.41-11.54,7.84-3.21,3.44-5.71,7.58-7.51,12.44-1.79,4.86-2.69,10.27-2.69,16.24s.9,11.39,2.69,16.24c1.79,4.86,4.29,9,7.51,12.44,3.21,3.44,7.06,6.05,11.54,7.84,4.48,1.79,9.48,2.69,15.01,2.69,7.02,0,13.33-1.6,18.93-4.82,5.6-3.21,10.72-7.73,15.35-13.56l33.38,29.8c-7.77,10.01-17.59,17.74-29.46,23.19-11.88,5.45-25.51,8.18-40.89,8.18Z"/>
  <path class="cls-1" d="M484.4,160.42V3.58h75.51c14.64,0,27.3,2.39,37.98,7.17,10.68,4.78,18.93,11.62,24.76,20.5,5.82,8.89,8.74,19.38,8.74,31.48s-2.91,22.52-8.74,31.26c-5.83,8.74-14.08,15.42-24.76,20.05-10.68,4.63-23.34,6.95-37.98,6.95h-46.16l23.53-21.73v61.17h-52.88Zm52.88-55.34l-23.53-23.97h42.79c7.32,0,12.73-1.64,16.24-4.93,3.51-3.28,5.27-7.76,5.27-13.44s-1.76-10.16-5.27-13.44c-3.51-3.28-8.93-4.93-16.24-4.93h-42.79l23.53-23.97V105.08Zm41,55.34l-38.54-57.13h56.01l38.98,57.13h-56.46Z"/>
  <path class="cls-1" d="M672.61,162.66c-8.37,0-15.39-2.72-21.06-8.18-5.68-5.45-8.51-12.44-8.51-20.95s2.84-15.61,8.51-20.84c5.68-5.23,12.7-7.84,21.06-7.84s15.38,2.62,21.06,7.84c5.68,5.23,8.51,12.18,8.51,20.84s-2.84,15.5-8.51,20.95c-5.68,5.45-12.7,8.18-21.06,8.18Z"/>
</svg>